<svg width="66" height="66" viewBox="0 0 66 66" fill="none" xmlns="http://www.w3.org/2000/svg">
<circle cx="33" cy="33" r="33" fill="url(#paint0_linear_874_1303)"/>
<path d="M33.4963 18.3335C26.8963 18.3335 21.543 23.6868 21.543 30.2685C21.543 38.6102 31.0213 45.6868 33.4963 47.4102C35.9896 45.6868 45.4313 38.6102 45.4313 30.2685C45.4313 23.6868 40.078 18.3335 33.4963 18.3335ZM33.4963 32.8718C31.8096 32.8718 30.453 31.4968 30.453 29.8285C30.453 28.1602 31.828 26.7852 33.4963 26.7852C35.1646 26.7852 36.5396 28.1602 36.5396 29.8285C36.5396 31.4968 35.1646 32.8718 33.4963 32.8718Z" fill="white"/>
<defs>
<linearGradient id="paint0_linear_874_1303" x1="33" y1="0" x2="33" y2="66" gradientUnits="userSpaceOnUse">
<stop stop-color="#10C200"/>
<stop offset="1" stop-color="#B1DD00"/>
</linearGradient>
</defs>
</svg>
